<mxfile host="app.diagrams.net" agent="Mozilla/5.0 (Macintosh; Intel Mac OS X 10_15_7) AppleWebKit/537.36 (KHTML, like Gecko) Chrome/130.0.0.0 Safari/537.36" version="24.8.4">
  <diagram name="第 1 页" id="iYXpD938W_24FASuAmjk">
    <mxGraphModel dx="1087" dy="598" grid="1" gridSize="10" guides="1" tooltips="1" connect="1" arrows="1" fold="1" page="1" pageScale="1" pageWidth="827" pageHeight="1169" math="0" shadow="0">
      <root>
        <mxCell id="0" />
        <mxCell id="1" parent="0" />
        <mxCell id="8QOI_rT1Jq4joDSVYV2v-83" value="&lt;p style=&quot;margin: 0px; font-variant-numeric: normal; font-variant-east-asian: normal; font-variant-alternates: normal; font-size-adjust: none; font-kerning: auto; font-optical-sizing: auto; font-feature-settings: normal; font-variation-settings: normal; font-variant-position: normal; font-stretch: normal; line-height: normal; font-family: Menlo; color: rgb(28, 70, 74); background-color: rgb(255, 255, 255);&quot; class=&quot;p1&quot;&gt;&lt;br&gt;&lt;/p&gt;" style="rounded=1;whiteSpace=wrap;html=1;strokeColor=default;fillColor=none;dashed=1;dashPattern=8 8;shadow=0;" parent="1" vertex="1">
          <mxGeometry x="1100" y="40" width="1230" height="700" as="geometry" />
        </mxCell>
        <mxCell id="8QOI_rT1Jq4joDSVYV2v-20" value="&lt;p style=&quot;margin: 0px; font-variant-numeric: normal; font-variant-east-asian: normal; font-variant-alternates: normal; font-size-adjust: none; font-kerning: auto; font-optical-sizing: auto; font-feature-settings: normal; font-variation-settings: normal; font-variant-position: normal; font-stretch: normal; line-height: normal; font-family: Menlo; color: rgb(28, 70, 74); background-color: rgb(255, 255, 255);&quot; class=&quot;p1&quot;&gt;&lt;br&gt;&lt;/p&gt;" style="rounded=1;whiteSpace=wrap;html=1;sketch=1;curveFitting=1;jiggle=2;strokeColor=default;fillColor=none;dashed=1;dashPattern=8 8;shadow=0;" parent="1" vertex="1">
          <mxGeometry x="140" y="60" width="800" height="540" as="geometry" />
        </mxCell>
        <mxCell id="8QOI_rT1Jq4joDSVYV2v-1" value="&lt;p style=&quot;margin: 0px; font-variant-numeric: normal; font-variant-east-asian: normal; font-variant-alternates: normal; font-size-adjust: none; font-kerning: auto; font-optical-sizing: auto; font-feature-settings: normal; font-variation-settings: normal; font-variant-position: normal; font-stretch: normal; line-height: normal; font-family: Menlo; color: rgb(28, 70, 74); background-color: rgb(255, 255, 255);&quot; class=&quot;p1&quot;&gt;首页框架&lt;/p&gt;&lt;p style=&quot;margin: 0px; font-variant-numeric: normal; font-variant-east-asian: normal; font-variant-alternates: normal; font-size-adjust: none; font-kerning: auto; font-optical-sizing: auto; font-feature-settings: normal; font-variation-settings: normal; font-variant-position: normal; font-stretch: normal; line-height: normal; font-family: Menlo; color: rgb(28, 70, 74); background-color: rgb(255, 255, 255); text-align: start;&quot; class=&quot;p1&quot;&gt;XYMHomeViewController&lt;/p&gt;" style="rounded=1;whiteSpace=wrap;html=1;sketch=1;curveFitting=1;jiggle=2;strokeColor=none;fillColor=none;" parent="1" vertex="1">
          <mxGeometry x="330" y="120" width="220" height="70" as="geometry" />
        </mxCell>
        <mxCell id="8QOI_rT1Jq4joDSVYV2v-2" value="" style="shape=curlyBracket;whiteSpace=wrap;html=1;rounded=1;labelPosition=left;verticalLabelPosition=middle;align=right;verticalAlign=middle;rotation=90;" parent="1" vertex="1">
          <mxGeometry x="430" y="-20" width="20" height="440" as="geometry" />
        </mxCell>
        <mxCell id="8QOI_rT1Jq4joDSVYV2v-3" value="&lt;p style=&quot;margin: 0px; font-variant-numeric: normal; font-variant-east-asian: normal; font-variant-alternates: normal; font-size-adjust: none; font-kerning: auto; font-optical-sizing: auto; font-feature-settings: normal; font-variation-settings: normal; font-variant-position: normal; font-stretch: normal; line-height: normal; font-family: Menlo; color: rgb(28, 70, 74); background-color: rgb(255, 255, 255);&quot; class=&quot;p1&quot;&gt;关注页&lt;/p&gt;&lt;p style=&quot;margin: 0px; font-variant-numeric: normal; font-variant-east-asian: normal; font-variant-alternates: normal; font-size-adjust: none; font-kerning: auto; font-optical-sizing: auto; font-feature-settings: normal; font-variation-settings: normal; font-variant-position: normal; font-stretch: normal; line-height: normal; font-family: &amp;quot;Helvetica Neue&amp;quot;; color: rgba(0, 0, 0, 0.85); text-align: start;&quot; class=&quot;p1&quot;&gt;XYFFNoteViewController&lt;/p&gt;" style="rounded=1;whiteSpace=wrap;html=1;sketch=1;curveFitting=1;jiggle=2;strokeColor=none;fillColor=none;" parent="1" vertex="1">
          <mxGeometry x="120" y="230" width="220" height="70" as="geometry" />
        </mxCell>
        <mxCell id="8QOI_rT1Jq4joDSVYV2v-4" value="&lt;p style=&quot;margin: 0px; font-variant-numeric: normal; font-variant-east-asian: normal; font-variant-alternates: normal; font-size-adjust: none; font-kerning: auto; font-optical-sizing: auto; font-feature-settings: normal; font-variation-settings: normal; font-variant-position: normal; font-stretch: normal; line-height: normal; font-family: Menlo; color: rgb(28, 70, 74); background-color: rgb(255, 255, 255);&quot; class=&quot;p1&quot;&gt;发现页&lt;/p&gt;&lt;p style=&quot;margin: 0px; font-variant-numeric: normal; font-variant-east-asian: normal; font-variant-alternates: normal; font-size-adjust: none; font-kerning: auto; font-optical-sizing: auto; font-feature-settings: normal; font-variation-settings: normal; font-variant-position: normal; font-stretch: normal; line-height: normal; font-family: &amp;quot;Helvetica Neue&amp;quot;; color: rgba(0, 0, 0, 0.85); text-align: start;&quot; class=&quot;p1&quot;&gt;XYEXExploreFeedV2ViewController&lt;/p&gt;" style="rounded=1;whiteSpace=wrap;html=1;sketch=1;curveFitting=1;jiggle=2;strokeColor=none;fillColor=none;" parent="1" vertex="1">
          <mxGeometry x="330" y="230" width="220" height="70" as="geometry" />
        </mxCell>
        <mxCell id="8QOI_rT1Jq4joDSVYV2v-5" value="&lt;p style=&quot;margin: 0px; font-variant-numeric: normal; font-variant-east-asian: normal; font-variant-alternates: normal; font-size-adjust: none; font-kerning: auto; font-optical-sizing: auto; font-feature-settings: normal; font-variation-settings: normal; font-variant-position: normal; font-stretch: normal; line-height: normal; font-family: Menlo; color: rgb(28, 70, 74); background-color: rgb(255, 255, 255);&quot; class=&quot;p1&quot;&gt;同城页&lt;/p&gt;&lt;p style=&quot;margin: 0px; font-variant-numeric: normal; font-variant-east-asian: normal; font-variant-alternates: normal; font-size-adjust: none; font-kerning: auto; font-optical-sizing: auto; font-feature-settings: normal; font-variation-settings: normal; font-variant-position: normal; font-stretch: normal; line-height: normal; font-family: &amp;quot;Helvetica Neue&amp;quot;; color: rgba(0, 0, 0, 0.85); text-align: start;&quot; class=&quot;p1&quot;&gt;XYEXNearbyViewController&lt;/p&gt;" style="rounded=1;whiteSpace=wrap;html=1;sketch=1;curveFitting=1;jiggle=2;strokeColor=none;fillColor=none;" parent="1" vertex="1">
          <mxGeometry x="560" y="230" width="220" height="70" as="geometry" />
        </mxCell>
        <mxCell id="8QOI_rT1Jq4joDSVYV2v-6" value="" style="shape=curlyBracket;whiteSpace=wrap;html=1;rounded=1;flipH=1;labelPosition=right;verticalLabelPosition=middle;align=left;verticalAlign=middle;rotation=-90;" parent="1" vertex="1">
          <mxGeometry x="662.5" y="237.5" width="20" height="145" as="geometry" />
        </mxCell>
        <mxCell id="8QOI_rT1Jq4joDSVYV2v-7" value="金刚位\实况bar\地图" style="rounded=1;whiteSpace=wrap;html=1;fillColor=#fff2cc;strokeColor=#d6b656;" parent="1" vertex="1">
          <mxGeometry x="610" y="323" width="130" height="47" as="geometry" />
        </mxCell>
        <mxCell id="8QOI_rT1Jq4joDSVYV2v-8" value="笔记卡片" style="rounded=1;whiteSpace=wrap;html=1;fillColor=#d5e8d4;strokeColor=#82b366;" parent="1" vertex="1">
          <mxGeometry x="610" y="390" width="60" height="47" as="geometry" />
        </mxCell>
        <mxCell id="8QOI_rT1Jq4joDSVYV2v-9" value="笔记卡片" style="rounded=1;whiteSpace=wrap;html=1;fillColor=#d5e8d4;strokeColor=#82b366;" parent="1" vertex="1">
          <mxGeometry x="680" y="390" width="60" height="47" as="geometry" />
        </mxCell>
        <mxCell id="8QOI_rT1Jq4joDSVYV2v-10" value="笔记卡片" style="rounded=1;whiteSpace=wrap;html=1;fillColor=#d5e8d4;strokeColor=#82b366;" parent="1" vertex="1">
          <mxGeometry x="610" y="450" width="60" height="47" as="geometry" />
        </mxCell>
        <mxCell id="8QOI_rT1Jq4joDSVYV2v-11" value="笔记卡片" style="rounded=1;whiteSpace=wrap;html=1;fillColor=#d5e8d4;strokeColor=#82b366;" parent="1" vertex="1">
          <mxGeometry x="680" y="450" width="60" height="47" as="geometry" />
        </mxCell>
        <mxCell id="8QOI_rT1Jq4joDSVYV2v-12" value="" style="shape=curlyBracket;whiteSpace=wrap;html=1;rounded=1;flipH=1;labelPosition=right;verticalLabelPosition=middle;align=left;verticalAlign=middle;rotation=-180;" parent="1" vertex="1">
          <mxGeometry x="565" y="340" width="20" height="200" as="geometry" />
        </mxCell>
        <mxCell id="8QOI_rT1Jq4joDSVYV2v-13" value="....." style="rounded=1;whiteSpace=wrap;html=1;fillColor=#d5e8d4;strokeColor=#82b366;" parent="1" vertex="1">
          <mxGeometry x="610" y="510" width="60" height="47" as="geometry" />
        </mxCell>
        <mxCell id="8QOI_rT1Jq4joDSVYV2v-14" value="......" style="rounded=1;whiteSpace=wrap;html=1;fillColor=#d5e8d4;strokeColor=#82b366;" parent="1" vertex="1">
          <mxGeometry x="680" y="510" width="60" height="47" as="geometry" />
        </mxCell>
        <mxCell id="8QOI_rT1Jq4joDSVYV2v-15" value="&lt;p style=&quot;margin: 0px; font-variant-numeric: normal; font-variant-east-asian: normal; font-variant-alternates: normal; font-size-adjust: none; font-kerning: auto; font-optical-sizing: auto; font-feature-settings: normal; font-variation-settings: normal; font-variant-position: normal; font-stretch: normal; line-height: normal; font-family: &amp;quot;Helvetica Neue&amp;quot;; color: rgba(0, 0, 0, 0.85); text-align: start; text-wrap-mode: wrap;&quot; class=&quot;p1&quot;&gt;UICollectionView&lt;/p&gt;" style="text;html=1;align=center;verticalAlign=middle;resizable=0;points=[];autosize=1;strokeColor=none;fillColor=none;" parent="1" vertex="1">
          <mxGeometry x="440" y="425" width="110" height="30" as="geometry" />
        </mxCell>
        <mxCell id="8QOI_rT1Jq4joDSVYV2v-21" value="现状" style="text;html=1;align=center;verticalAlign=middle;resizable=0;points=[];autosize=1;strokeColor=#b85450;fillColor=#f8cecc;" parent="1" vertex="1">
          <mxGeometry x="515" y="80" width="50" height="30" as="geometry" />
        </mxCell>
        <mxCell id="8QOI_rT1Jq4joDSVYV2v-23" value="&lt;p style=&quot;margin: 0px; font-variant-numeric: normal; font-variant-east-asian: normal; font-variant-alternates: normal; font-size-adjust: none; font-kerning: auto; font-optical-sizing: auto; font-feature-settings: normal; font-variation-settings: normal; font-variant-position: normal; font-stretch: normal; line-height: normal; font-family: Menlo; color: rgb(28, 70, 74); background-color: rgb(255, 255, 255);&quot; class=&quot;p1&quot;&gt;首页框架&lt;/p&gt;&lt;p style=&quot;margin: 0px; font-variant-numeric: normal; font-variant-east-asian: normal; font-variant-alternates: normal; font-size-adjust: none; font-kerning: auto; font-optical-sizing: auto; font-feature-settings: normal; font-variation-settings: normal; font-variant-position: normal; font-stretch: normal; line-height: normal; font-family: Menlo; color: rgb(28, 70, 74); background-color: rgb(255, 255, 255); text-align: start;&quot; class=&quot;p1&quot;&gt;XYMHomeViewController&lt;/p&gt;" style="rounded=1;whiteSpace=wrap;html=1;sketch=1;curveFitting=1;jiggle=2;strokeColor=none;fillColor=none;" parent="1" vertex="1">
          <mxGeometry x="1320" y="120" width="220" height="70" as="geometry" />
        </mxCell>
        <mxCell id="8QOI_rT1Jq4joDSVYV2v-24" value="" style="shape=curlyBracket;whiteSpace=wrap;html=1;rounded=1;labelPosition=left;verticalLabelPosition=middle;align=right;verticalAlign=middle;rotation=90;" parent="1" vertex="1">
          <mxGeometry x="1522.5" y="-122.5" width="20" height="645" as="geometry" />
        </mxCell>
        <mxCell id="8QOI_rT1Jq4joDSVYV2v-25" value="&lt;p style=&quot;margin: 0px; font-variant-numeric: normal; font-variant-east-asian: normal; font-variant-alternates: normal; font-size-adjust: none; font-kerning: auto; font-optical-sizing: auto; font-feature-settings: normal; font-variation-settings: normal; font-variant-position: normal; font-stretch: normal; line-height: normal; font-family: Menlo; color: rgb(28, 70, 74); background-color: rgb(255, 255, 255);&quot; class=&quot;p1&quot;&gt;发现页&lt;/p&gt;&lt;p style=&quot;margin: 0px; font-variant-numeric: normal; font-variant-east-asian: normal; font-variant-alternates: normal; font-size-adjust: none; font-kerning: auto; font-optical-sizing: auto; font-feature-settings: normal; font-variation-settings: normal; font-variant-position: normal; font-stretch: normal; line-height: normal; font-family: &amp;quot;Helvetica Neue&amp;quot;; color: rgba(0, 0, 0, 0.85); text-align: start;&quot; class=&quot;p1&quot;&gt;XYEXExploreFeedV2ViewController&lt;/p&gt;" style="rounded=1;whiteSpace=wrap;html=1;sketch=1;curveFitting=1;jiggle=2;strokeColor=none;fillColor=none;" parent="1" vertex="1">
          <mxGeometry x="1380" y="230" width="220" height="70" as="geometry" />
        </mxCell>
        <mxCell id="8QOI_rT1Jq4joDSVYV2v-26" value="&lt;p style=&quot;margin: 0px; font-variant-numeric: normal; font-variant-east-asian: normal; font-variant-alternates: normal; font-size-adjust: none; font-kerning: auto; font-optical-sizing: auto; font-feature-settings: normal; font-variation-settings: normal; font-variant-position: normal; font-stretch: normal; line-height: normal; font-family: Menlo; color: rgb(28, 70, 74); background-color: rgb(255, 255, 255);&quot; class=&quot;p1&quot;&gt;复用同城页&lt;/p&gt;&lt;p style=&quot;margin: 0px; font-variant-numeric: normal; font-variant-east-asian: normal; font-variant-alternates: normal; font-size-adjust: none; font-kerning: auto; font-optical-sizing: auto; font-feature-settings: normal; font-variation-settings: normal; font-variant-position: normal; font-stretch: normal; line-height: normal; font-family: &amp;quot;Helvetica Neue&amp;quot;; color: rgba(0, 0, 0, 0.85); text-align: start;&quot; class=&quot;p1&quot;&gt;XYEXNearbyViewController&lt;/p&gt;" style="rounded=1;whiteSpace=wrap;html=1;sketch=1;curveFitting=1;jiggle=2;strokeColor=none;fillColor=none;" parent="1" vertex="1">
          <mxGeometry x="1460" y="382.5" width="220" height="70" as="geometry" />
        </mxCell>
        <mxCell id="8QOI_rT1Jq4joDSVYV2v-27" value="" style="shape=curlyBracket;whiteSpace=wrap;html=1;rounded=1;flipH=1;labelPosition=right;verticalLabelPosition=middle;align=left;verticalAlign=middle;rotation=-90;" parent="1" vertex="1">
          <mxGeometry x="1562.5" y="390" width="20" height="145" as="geometry" />
        </mxCell>
        <mxCell id="8QOI_rT1Jq4joDSVYV2v-28" value="金刚位\实况bar\地图" style="rounded=1;whiteSpace=wrap;html=1;fillColor=#fff2cc;strokeColor=#d6b656;" parent="1" vertex="1">
          <mxGeometry x="1510" y="475.5" width="130" height="47" as="geometry" />
        </mxCell>
        <mxCell id="8QOI_rT1Jq4joDSVYV2v-29" value="笔记卡片" style="rounded=1;whiteSpace=wrap;html=1;fillColor=#d5e8d4;strokeColor=#82b366;" parent="1" vertex="1">
          <mxGeometry x="1510" y="542.5" width="60" height="47" as="geometry" />
        </mxCell>
        <mxCell id="8QOI_rT1Jq4joDSVYV2v-30" value="笔记卡片" style="rounded=1;whiteSpace=wrap;html=1;fillColor=#d5e8d4;strokeColor=#82b366;" parent="1" vertex="1">
          <mxGeometry x="1580" y="542.5" width="60" height="47" as="geometry" />
        </mxCell>
        <mxCell id="8QOI_rT1Jq4joDSVYV2v-31" value="笔记卡片" style="rounded=1;whiteSpace=wrap;html=1;fillColor=#d5e8d4;strokeColor=#82b366;" parent="1" vertex="1">
          <mxGeometry x="1510" y="602.5" width="60" height="47" as="geometry" />
        </mxCell>
        <mxCell id="8QOI_rT1Jq4joDSVYV2v-32" value="笔记卡片" style="rounded=1;whiteSpace=wrap;html=1;fillColor=#d5e8d4;strokeColor=#82b366;" parent="1" vertex="1">
          <mxGeometry x="1580" y="602.5" width="60" height="47" as="geometry" />
        </mxCell>
        <mxCell id="8QOI_rT1Jq4joDSVYV2v-33" value="" style="shape=curlyBracket;whiteSpace=wrap;html=1;rounded=1;flipH=1;labelPosition=right;verticalLabelPosition=middle;align=left;verticalAlign=middle;rotation=-181;" parent="1" vertex="1">
          <mxGeometry x="1460" y="492.5" width="20" height="200" as="geometry" />
        </mxCell>
        <mxCell id="8QOI_rT1Jq4joDSVYV2v-34" value="....." style="rounded=1;whiteSpace=wrap;html=1;fillColor=#d5e8d4;strokeColor=#82b366;" parent="1" vertex="1">
          <mxGeometry x="1510" y="662.5" width="60" height="47" as="geometry" />
        </mxCell>
        <mxCell id="8QOI_rT1Jq4joDSVYV2v-35" value="......" style="rounded=1;whiteSpace=wrap;html=1;fillColor=#d5e8d4;strokeColor=#82b366;" parent="1" vertex="1">
          <mxGeometry x="1580" y="662.5" width="60" height="47" as="geometry" />
        </mxCell>
        <mxCell id="8QOI_rT1Jq4joDSVYV2v-36" value="&lt;p style=&quot;margin: 0px; font-variant-numeric: normal; font-variant-east-asian: normal; font-variant-alternates: normal; font-size-adjust: none; font-kerning: auto; font-optical-sizing: auto; font-feature-settings: normal; font-variation-settings: normal; font-variant-position: normal; font-stretch: normal; line-height: normal; font-family: &amp;quot;Helvetica Neue&amp;quot;; color: rgba(0, 0, 0, 0.85); text-align: start; text-wrap-mode: wrap;&quot; class=&quot;p1&quot;&gt;UICollectionView&lt;/p&gt;" style="text;html=1;align=center;verticalAlign=middle;resizable=0;points=[];autosize=1;strokeColor=none;fillColor=none;" parent="1" vertex="1">
          <mxGeometry x="1340" y="577.5" width="110" height="30" as="geometry" />
        </mxCell>
        <mxCell id="8QOI_rT1Jq4joDSVYV2v-37" value="同城新结构" style="text;html=1;align=center;verticalAlign=middle;resizable=0;points=[];autosize=1;strokeColor=#b85450;fillColor=#f8cecc;" parent="1" vertex="1">
          <mxGeometry x="1490" y="80" width="80" height="30" as="geometry" />
        </mxCell>
        <mxCell id="8QOI_rT1Jq4joDSVYV2v-38" value="&lt;p style=&quot;margin: 0px; font-variant-numeric: normal; font-variant-east-asian: normal; font-variant-alternates: normal; font-size-adjust: none; font-kerning: auto; font-optical-sizing: auto; font-feature-settings: normal; font-variation-settings: normal; font-variant-position: normal; font-stretch: normal; line-height: normal; font-family: Menlo; color: rgb(28, 70, 74); background-color: rgb(255, 255, 255);&quot; class=&quot;p1&quot;&gt;关注页&lt;/p&gt;&lt;p style=&quot;margin: 0px; font-variant-numeric: normal; font-variant-east-asian: normal; font-variant-alternates: normal; font-size-adjust: none; font-kerning: auto; font-optical-sizing: auto; font-feature-settings: normal; font-variation-settings: normal; font-variant-position: normal; font-stretch: normal; line-height: normal; font-family: &amp;quot;Helvetica Neue&amp;quot;; color: rgba(0, 0, 0, 0.85); text-align: start;&quot; class=&quot;p1&quot;&gt;XYFFNoteViewController&lt;/p&gt;" style="rounded=1;whiteSpace=wrap;html=1;sketch=1;curveFitting=1;jiggle=2;strokeColor=none;fillColor=none;" parent="1" vertex="1">
          <mxGeometry x="1110" y="230" width="220" height="70" as="geometry" />
        </mxCell>
        <mxCell id="8QOI_rT1Jq4joDSVYV2v-39" value="&lt;p style=&quot;margin: 0px; font-variant-numeric: normal; font-variant-east-asian: normal; font-variant-alternates: normal; font-size-adjust: none; font-kerning: auto; font-optical-sizing: auto; font-feature-settings: normal; font-variation-settings: normal; font-variant-position: normal; font-stretch: normal; line-height: normal; font-family: Menlo; color: rgb(28, 70, 74); background-color: rgb(255, 255, 255);&quot; class=&quot;p1&quot;&gt;同城viewPage容器&lt;/p&gt;&lt;p style=&quot;margin: 0px; font-variant-numeric: normal; font-variant-east-asian: normal; font-variant-alternates: normal; font-size-adjust: none; font-kerning: auto; font-optical-sizing: auto; font-feature-settings: normal; font-variation-settings: normal; font-variant-position: normal; font-stretch: normal; line-height: normal; font-family: &amp;quot;Helvetica Neue&amp;quot;; color: rgba(0, 0, 0, 0.85); text-align: start;&quot; class=&quot;p1&quot;&gt;XYEXNearbyWrapperPageViewController&lt;/p&gt;" style="rounded=1;whiteSpace=wrap;html=1;strokeColor=#e40c0c;fillColor=none;dashed=1;shadow=0;" parent="1" vertex="1">
          <mxGeometry x="1722.5" y="230" width="230" height="70" as="geometry" />
        </mxCell>
        <mxCell id="8QOI_rT1Jq4joDSVYV2v-40" value="" style="shape=curlyBracket;whiteSpace=wrap;html=1;rounded=1;flipH=1;labelPosition=right;verticalLabelPosition=middle;align=left;verticalAlign=middle;rotation=-90;" parent="1" vertex="1">
          <mxGeometry x="1838.09" y="7.7" width="20" height="629.6" as="geometry" />
        </mxCell>
        <mxCell id="8QOI_rT1Jq4joDSVYV2v-41" value="推荐" style="rounded=1;whiteSpace=wrap;html=1;fillColor=#fff2cc;strokeColor=#d6b656;" parent="1" vertex="1">
          <mxGeometry x="1542.5" y="340" width="66" height="47" as="geometry" />
        </mxCell>
        <mxCell id="8QOI_rT1Jq4joDSVYV2v-42" value="附近一公里" style="rounded=1;whiteSpace=wrap;html=1;fillColor=#fff2cc;strokeColor=#d6b656;" parent="1" vertex="1">
          <mxGeometry x="1724" y="340" width="66" height="47" as="geometry" />
        </mxCell>
        <mxCell id="8QOI_rT1Jq4joDSVYV2v-43" value="美食" style="rounded=1;whiteSpace=wrap;html=1;fillColor=#fff2cc;strokeColor=#d6b656;" parent="1" vertex="1">
          <mxGeometry x="1909.5" y="339.5" width="66" height="47" as="geometry" />
        </mxCell>
        <mxCell id="8QOI_rT1Jq4joDSVYV2v-44" value="周边" style="rounded=1;whiteSpace=wrap;html=1;fillColor=#fff2cc;strokeColor=#d6b656;" parent="1" vertex="1">
          <mxGeometry x="2110" y="339.5" width="66" height="47" as="geometry" />
        </mxCell>
        <mxCell id="8QOI_rT1Jq4joDSVYV2v-55" value="&lt;p style=&quot;margin: 0px; font-variant-numeric: normal; font-variant-east-asian: normal; font-variant-alternates: normal; font-size-adjust: none; font-kerning: auto; font-optical-sizing: auto; font-feature-settings: normal; font-variation-settings: normal; font-variant-position: normal; font-stretch: normal; line-height: normal; font-family: Menlo; color: rgb(28, 70, 74); background-color: rgb(255, 255, 255);&quot; class=&quot;p1&quot;&gt;同城页&lt;/p&gt;&lt;p style=&quot;margin: 0px; font-variant-numeric: normal; font-variant-east-asian: normal; font-variant-alternates: normal; font-size-adjust: none; font-kerning: auto; font-optical-sizing: auto; font-feature-settings: normal; font-variation-settings: normal; font-variant-position: normal; font-stretch: normal; line-height: normal; font-family: &amp;quot;Helvetica Neue&amp;quot;; color: rgba(0, 0, 0, 0.85); text-align: start;&quot; class=&quot;p1&quot;&gt;XYEXNearbyFilterViewController&lt;/p&gt;" style="rounded=1;whiteSpace=wrap;html=1;sketch=1;curveFitting=1;jiggle=2;strokeColor=none;fillColor=none;" parent="1" vertex="1">
          <mxGeometry x="1640" y="390" width="220" height="70" as="geometry" />
        </mxCell>
        <mxCell id="8QOI_rT1Jq4joDSVYV2v-56" value="" style="shape=curlyBracket;whiteSpace=wrap;html=1;rounded=1;flipH=1;labelPosition=right;verticalLabelPosition=middle;align=left;verticalAlign=middle;rotation=-90;" parent="1" vertex="1">
          <mxGeometry x="1742.5" y="397.5" width="20" height="145" as="geometry" />
        </mxCell>
        <mxCell id="8QOI_rT1Jq4joDSVYV2v-58" value="笔记卡片" style="rounded=1;whiteSpace=wrap;html=1;fillColor=#d5e8d4;strokeColor=#82b366;" parent="1" vertex="1">
          <mxGeometry x="1688" y="490" width="60" height="47" as="geometry" />
        </mxCell>
        <mxCell id="8QOI_rT1Jq4joDSVYV2v-59" value="笔记卡片" style="rounded=1;whiteSpace=wrap;html=1;fillColor=#d5e8d4;strokeColor=#82b366;" parent="1" vertex="1">
          <mxGeometry x="1758" y="490" width="60" height="47" as="geometry" />
        </mxCell>
        <mxCell id="8QOI_rT1Jq4joDSVYV2v-60" value="笔记卡片" style="rounded=1;whiteSpace=wrap;html=1;fillColor=#d5e8d4;strokeColor=#82b366;" parent="1" vertex="1">
          <mxGeometry x="1688" y="550" width="60" height="47" as="geometry" />
        </mxCell>
        <mxCell id="8QOI_rT1Jq4joDSVYV2v-61" value="笔记卡片" style="rounded=1;whiteSpace=wrap;html=1;fillColor=#d5e8d4;strokeColor=#82b366;" parent="1" vertex="1">
          <mxGeometry x="1758" y="550" width="60" height="47" as="geometry" />
        </mxCell>
        <mxCell id="8QOI_rT1Jq4joDSVYV2v-63" value="....." style="rounded=1;whiteSpace=wrap;html=1;fillColor=#d5e8d4;strokeColor=#82b366;" parent="1" vertex="1">
          <mxGeometry x="1688" y="610" width="60" height="47" as="geometry" />
        </mxCell>
        <mxCell id="8QOI_rT1Jq4joDSVYV2v-64" value="......" style="rounded=1;whiteSpace=wrap;html=1;fillColor=#d5e8d4;strokeColor=#82b366;" parent="1" vertex="1">
          <mxGeometry x="1758" y="610" width="60" height="47" as="geometry" />
        </mxCell>
        <mxCell id="8QOI_rT1Jq4joDSVYV2v-67" value="&lt;p style=&quot;margin: 0px; font-variant-numeric: normal; font-variant-east-asian: normal; font-variant-alternates: normal; font-size-adjust: none; font-kerning: auto; font-optical-sizing: auto; font-feature-settings: normal; font-variation-settings: normal; font-variant-position: normal; font-stretch: normal; line-height: normal; font-family: Menlo; color: rgb(28, 70, 74); background-color: rgb(255, 255, 255);&quot; class=&quot;p1&quot;&gt;同城页&lt;/p&gt;&lt;p style=&quot;margin: 0px; font-variant-numeric: normal; font-variant-east-asian: normal; font-variant-alternates: normal; font-size-adjust: none; font-kerning: auto; font-optical-sizing: auto; font-feature-settings: normal; font-variation-settings: normal; font-variant-position: normal; font-stretch: normal; line-height: normal; font-family: &amp;quot;Helvetica Neue&amp;quot;; color: rgba(0, 0, 0, 0.85); text-align: start;&quot; class=&quot;p1&quot;&gt;XYEXNearbyFilterViewController&lt;/p&gt;" style="rounded=1;whiteSpace=wrap;html=1;sketch=1;curveFitting=1;jiggle=2;strokeColor=none;fillColor=none;" parent="1" vertex="1">
          <mxGeometry x="1830" y="395.5" width="220" height="70" as="geometry" />
        </mxCell>
        <mxCell id="8QOI_rT1Jq4joDSVYV2v-68" value="" style="shape=curlyBracket;whiteSpace=wrap;html=1;rounded=1;flipH=1;labelPosition=right;verticalLabelPosition=middle;align=left;verticalAlign=middle;rotation=-90;" parent="1" vertex="1">
          <mxGeometry x="1932.5" y="403" width="20" height="145" as="geometry" />
        </mxCell>
        <mxCell id="8QOI_rT1Jq4joDSVYV2v-69" value="笔记卡片" style="rounded=1;whiteSpace=wrap;html=1;fillColor=#d5e8d4;strokeColor=#82b366;" parent="1" vertex="1">
          <mxGeometry x="1878" y="495.5" width="60" height="47" as="geometry" />
        </mxCell>
        <mxCell id="8QOI_rT1Jq4joDSVYV2v-70" value="笔记卡片" style="rounded=1;whiteSpace=wrap;html=1;fillColor=#d5e8d4;strokeColor=#82b366;" parent="1" vertex="1">
          <mxGeometry x="1948" y="495.5" width="60" height="47" as="geometry" />
        </mxCell>
        <mxCell id="8QOI_rT1Jq4joDSVYV2v-71" value="笔记卡片" style="rounded=1;whiteSpace=wrap;html=1;fillColor=#d5e8d4;strokeColor=#82b366;" parent="1" vertex="1">
          <mxGeometry x="1878" y="555.5" width="60" height="47" as="geometry" />
        </mxCell>
        <mxCell id="8QOI_rT1Jq4joDSVYV2v-72" value="笔记卡片" style="rounded=1;whiteSpace=wrap;html=1;fillColor=#d5e8d4;strokeColor=#82b366;" parent="1" vertex="1">
          <mxGeometry x="1948" y="555.5" width="60" height="47" as="geometry" />
        </mxCell>
        <mxCell id="8QOI_rT1Jq4joDSVYV2v-73" value="....." style="rounded=1;whiteSpace=wrap;html=1;fillColor=#d5e8d4;strokeColor=#82b366;" parent="1" vertex="1">
          <mxGeometry x="1878" y="615.5" width="60" height="47" as="geometry" />
        </mxCell>
        <mxCell id="8QOI_rT1Jq4joDSVYV2v-74" value="......" style="rounded=1;whiteSpace=wrap;html=1;fillColor=#d5e8d4;strokeColor=#82b366;" parent="1" vertex="1">
          <mxGeometry x="1948" y="615.5" width="60" height="47" as="geometry" />
        </mxCell>
        <mxCell id="8QOI_rT1Jq4joDSVYV2v-75" value="&lt;p style=&quot;margin: 0px; font-variant-numeric: normal; font-variant-east-asian: normal; font-variant-alternates: normal; font-size-adjust: none; font-kerning: auto; font-optical-sizing: auto; font-feature-settings: normal; font-variation-settings: normal; font-variant-position: normal; font-stretch: normal; line-height: normal; font-family: Menlo; color: rgb(28, 70, 74); background-color: rgb(255, 255, 255);&quot; class=&quot;p1&quot;&gt;同城页&lt;/p&gt;&lt;p style=&quot;margin: 0px; font-variant-numeric: normal; font-variant-east-asian: normal; font-variant-alternates: normal; font-size-adjust: none; font-kerning: auto; font-optical-sizing: auto; font-feature-settings: normal; font-variation-settings: normal; font-variant-position: normal; font-stretch: normal; line-height: normal; font-family: &amp;quot;Helvetica Neue&amp;quot;; color: rgba(0, 0, 0, 0.85); text-align: start;&quot; class=&quot;p1&quot;&gt;XYEXNearbyFilterViewController&lt;/p&gt;" style="rounded=1;whiteSpace=wrap;html=1;sketch=1;curveFitting=1;jiggle=2;strokeColor=none;fillColor=none;" parent="1" vertex="1">
          <mxGeometry x="2040" y="395.5" width="220" height="70" as="geometry" />
        </mxCell>
        <mxCell id="8QOI_rT1Jq4joDSVYV2v-76" value="" style="shape=curlyBracket;whiteSpace=wrap;html=1;rounded=1;flipH=1;labelPosition=right;verticalLabelPosition=middle;align=left;verticalAlign=middle;rotation=-90;" parent="1" vertex="1">
          <mxGeometry x="2142.5" y="403" width="20" height="145" as="geometry" />
        </mxCell>
        <mxCell id="8QOI_rT1Jq4joDSVYV2v-77" value="笔记卡片" style="rounded=1;whiteSpace=wrap;html=1;fillColor=#d5e8d4;strokeColor=#82b366;" parent="1" vertex="1">
          <mxGeometry x="2088" y="495.5" width="60" height="47" as="geometry" />
        </mxCell>
        <mxCell id="8QOI_rT1Jq4joDSVYV2v-78" value="笔记卡片" style="rounded=1;whiteSpace=wrap;html=1;fillColor=#d5e8d4;strokeColor=#82b366;" parent="1" vertex="1">
          <mxGeometry x="2158" y="495.5" width="60" height="47" as="geometry" />
        </mxCell>
        <mxCell id="8QOI_rT1Jq4joDSVYV2v-79" value="笔记卡片" style="rounded=1;whiteSpace=wrap;html=1;fillColor=#d5e8d4;strokeColor=#82b366;" parent="1" vertex="1">
          <mxGeometry x="2088" y="555.5" width="60" height="47" as="geometry" />
        </mxCell>
        <mxCell id="8QOI_rT1Jq4joDSVYV2v-80" value="笔记卡片" style="rounded=1;whiteSpace=wrap;html=1;fillColor=#d5e8d4;strokeColor=#82b366;" parent="1" vertex="1">
          <mxGeometry x="2158" y="555.5" width="60" height="47" as="geometry" />
        </mxCell>
        <mxCell id="8QOI_rT1Jq4joDSVYV2v-81" value="....." style="rounded=1;whiteSpace=wrap;html=1;fillColor=#d5e8d4;strokeColor=#82b366;" parent="1" vertex="1">
          <mxGeometry x="2088" y="615.5" width="60" height="47" as="geometry" />
        </mxCell>
        <mxCell id="8QOI_rT1Jq4joDSVYV2v-82" value="......" style="rounded=1;whiteSpace=wrap;html=1;fillColor=#d5e8d4;strokeColor=#82b366;" parent="1" vertex="1">
          <mxGeometry x="2158" y="615.5" width="60" height="47" as="geometry" />
        </mxCell>
      </root>
    </mxGraphModel>
  </diagram>
</mxfile>
